<svg width="36" height="32" viewBox="0 0 36 32" fill="none" xmlns="http://www.w3.org/2000/svg">
<rect y="0.212646" width="36" height="31.5642" rx="8" fill="#E5E5E5"/>
<path d="M18.8844 21.5185C12.1195 21.5185 8.26087 17.3715 8.1001 10.471H11.4887C11.6 15.5358 14.0982 17.6812 16.077 18.1235V10.471H19.2677V14.8391C21.2218 14.6511 23.2747 12.6606 23.9673 10.471H27.1581C26.8971 11.6066 26.3769 12.6818 25.6299 13.6294C24.883 14.577 23.9255 15.3766 22.8172 15.9782C24.0543 16.5278 25.147 17.3058 26.0232 18.2609C26.8993 19.2159 27.539 20.3262 27.9001 21.5185H24.3878C24.0637 20.4829 23.405 19.5558 22.4941 18.8535C21.5833 18.1512 20.461 17.705 19.2677 17.5706V21.5185H18.8844Z" fill="white"/>
</svg>
