<svg width="36" height="32" viewBox="0 0 36 32" fill="none" xmlns="http://www.w3.org/2000/svg">
<rect y="0.212646" width="36" height="31.5642" rx="8" fill="#E5E5E5"/>
<path d="M18 9.52979C20.3855 9.52979 20.7108 9.52979 21.6867 9.52979C22.5542 9.52979 22.988 9.71994 23.3133 9.81501C23.747 10.0052 24.0723 10.1002 24.3976 10.3854C24.7229 10.6707 24.9398 10.9559 25.0482 11.3362C25.1566 11.6214 25.2651 12.0017 25.3735 12.7623C25.3735 13.6179 25.3735 13.8081 25.3735 15.9948C25.3735 18.1814 25.3735 18.3716 25.3735 19.2272C25.3735 19.9878 25.1566 20.3681 25.0482 20.6533C24.8313 21.0336 24.7229 21.3188 24.3976 21.6041C24.0723 21.8893 23.747 22.0794 23.3133 22.1745C22.988 22.2696 22.5542 22.3646 21.6867 22.4597C20.7108 22.4597 20.494 22.4597 18 22.4597C15.506 22.4597 15.2892 22.4597 14.3133 22.4597C13.4458 22.4597 13.012 22.2696 12.6867 22.1745C12.253 21.9843 11.9277 21.8893 11.6024 21.6041C11.2771 21.3188 11.0602 21.0336 10.9518 20.6533C10.8434 20.3681 10.7349 19.9878 10.6265 19.2272C10.6265 18.3716 10.6265 18.1814 10.6265 15.9948C10.6265 13.8081 10.6265 13.6179 10.6265 12.7623C10.6265 12.0017 10.8434 11.6214 10.9518 11.3362C11.1687 10.9559 11.2771 10.6707 11.6024 10.3854C11.9277 10.1002 12.253 9.91008 12.6867 9.81501C13.012 9.71994 13.4458 9.62487 14.3133 9.52979C15.2892 9.52979 15.6145 9.52979 18 9.52979ZM18 8.1037C15.506 8.1037 15.2892 8.1037 14.3133 8.1037C13.3374 8.1037 12.6867 8.29385 12.1446 8.48399C11.6024 8.67414 11.0602 8.95936 10.5181 9.43472C9.9759 9.91008 9.75904 10.2904 9.43374 10.8608C9.21687 11.3362 9.10843 11.9066 9 12.7623C9 13.6179 9 13.9031 9 15.9948C9 18.1814 9 18.3716 9 19.2272C9 20.0829 9.21687 20.6533 9.43374 21.1287C9.6506 21.6041 9.9759 22.0794 10.5181 22.5548C11.0602 23.0301 11.494 23.2203 12.1446 23.5055C12.6867 23.6957 13.3374 23.7907 14.3133 23.8858C15.2892 23.8858 15.6145 23.8858 18 23.8858C20.3855 23.8858 20.7108 23.8858 21.6867 23.8858C22.6627 23.8858 23.3133 23.6957 23.8554 23.5055C24.3976 23.3154 24.9398 23.0301 25.4819 22.5548C26.0241 22.0794 26.241 21.6991 26.5663 21.1287C26.7831 20.6533 26.8916 20.0829 27 19.2272C27 18.3716 27 18.0864 27 15.9948C27 13.9031 27 13.6179 27 12.7623C27 11.9066 26.7831 11.3362 26.5663 10.8608C26.3494 10.3854 26.0241 9.91008 25.4819 9.43472C24.9398 8.95936 24.506 8.76921 23.8554 8.48399C23.3133 8.29385 22.6627 8.19877 21.6867 8.1037C20.7108 8.1037 20.494 8.1037 18 8.1037Z" fill="white"/>
<path d="M18 11.9066C15.3976 11.9066 13.3373 13.713 13.3373 15.9948C13.3373 18.2765 15.3976 20.0829 18 20.0829C20.6024 20.0829 22.6627 18.2765 22.6627 15.9948C22.6627 13.713 20.6024 11.9066 18 11.9066ZM18 18.6568C16.3735 18.6568 14.9639 17.5159 14.9639 15.9948C14.9639 14.5687 16.2651 13.3327 18 13.3327C19.6265 13.3327 21.0361 14.4736 21.0361 15.9948C21.0361 17.4208 19.6265 18.6568 18 18.6568Z" fill="white"/>
<path d="M22.7711 12.7623C23.3699 12.7623 23.8554 12.3366 23.8554 11.8115C23.8554 11.2865 23.3699 10.8608 22.7711 10.8608C22.1722 10.8608 21.6867 11.2865 21.6867 11.8115C21.6867 12.3366 22.1722 12.7623 22.7711 12.7623Z" fill="white"/>
</svg>
